<svg xmlns="http://www.w3.org/2000/svg" viewBox="0 0 64 64" fill="none">
  <!-- Background circle -->
  <circle cx="32" cy="32" r="32" fill="#4F46E5"/>
  <!-- Open book shape -->
  <path d="M12 20 C12 18 14 17 16 17 L30 19 L30 46 L16 44 C14 44 12 43 12 41 Z" fill="#E0E7FF" stroke="#C7D2FE" stroke-width="1"/>
  <path d="M52 20 C52 18 50 17 48 17 L34 19 L34 46 L48 44 C50 44 52 43 52 41 Z" fill="#E0E7FF" stroke="#C7D2FE" stroke-width="1"/>
  <!-- Spine -->
  <line x1="32" y1="19" x2="32" y2="46" stroke="#A5B4FC" stroke-width="1.5"/>
  <!-- Lines on left page -->
  <line x1="17" y1="25" x2="28" y2="25.5" stroke="#6366F1" stroke-width="1.5" stroke-linecap="round"/>
  <line x1="17" y1="30" x2="28" y2="30.5" stroke="#6366F1" stroke-width="1.5" stroke-linecap="round"/>
  <line x1="17" y1="35" x2="26" y2="35.4" stroke="#6366F1" stroke-width="1.5" stroke-linecap="round"/>
  <!-- Lines on right page -->
  <line x1="36" y1="25.5" x2="47" y2="25" stroke="#6366F1" stroke-width="1.5" stroke-linecap="round"/>
  <line x1="36" y1="30.5" x2="47" y2="30" stroke="#6366F1" stroke-width="1.5" stroke-linecap="round"/>
  <line x1="36" y1="35.4" x2="45" y2="35" stroke="#6366F1" stroke-width="1.5" stroke-linecap="round"/>
  <!-- +10 badge -->
  <circle cx="46" cy="48" r="11" fill="#F59E0B"/>
  <text x="46" y="52.5" font-family="Arial, sans-serif" font-size="10" font-weight="bold" fill="white" text-anchor="middle">+10</text>
</svg>
